<svg xmlns="http://www.w3.org/2000/svg" version="1.0" preserveAspectRatio="xMidYMid meet" viewBox="31 122 393.86 198.92">

<g transform="translate(0.000000,500.000000) scale(0.100000,-0.100000)" fill="#B91C1C" stroke="none">
<path d="M1182 3755 c-24 -30 -28 -82 -42 -570 -13 -439 -13 -443 -46 -451 -13 -3 -24 -9 -24 -13 1 -3 13 -64 29 -136 l29 -130 14 35 c8 19 27 70 43 113 15 43 39 92 52 108 46 54 136 58 189 8 13 -12 47 -81 75 -153 28 -72 54 -135 57 -141 3 -5 21 49 39 120 l32 130 1 463 c0 508 0 510 -59 530 -39 14 -80 2 -104 -30 -17 -23 -20 -62 -36 -434 -9 -225 -20 -415 -24 -421 -10 -16 -39 -17 -55 -1 -9 9 -12 127 -12 470 0 542 3 528 -100 528 -29 0 -43 -6 -58 -25z"/>
<path d="M915 3629 c-43 -21 -47 -44 -56 -283 -4 -127 -8 -276 -9 -331 l0 -100 43 3 c50 4 98 -24 135 -78 l23 -34 -3 392 c-3 380 -4 392 -24 412 -24 24 -80 34 -109 19z"/>
<path d="M1766 3467 c-27 -27 -32 -70 -42 -376 -7 -189 -6 -194 12 -186 10 5 42 11 71 13 42 3 58 -1 83 -18 l30 -21 0 271 c0 276 -3 299 -39 327 -28 21 -89 16 -115 -10z"/>
<path d="M3243 2993 c-20 -7 -19 -816 1 -832 9 -8 75 -11 217 -9 l204 3 3 33 3 32 -180 0 -181 0 0 378 c0 281 -3 381 -12 390 -12 12 -33 14 -55 5z"/>
<path d="M376 2850 c-37 -24 -65 -75 -66 -118 -1 -93 304 -559 497 -758 53 -54 153 -137 159 -131 2 2 -5 21 -15 43 -10 21 -49 169 -85 329 -42 188 -71 294 -81 301 -8 6 -62 78 -118 160 -58 83 -118 159 -137 172 -42 28 -113 30 -154 2z"/>
<path d="M2586 2844 c-34 -33 -12 -94 34 -94 47 0 68 61 32 93 -23 21 -46 22 -66 1z"/>
<path d="M2875 2788 c-3 -7 -6 -53 -7 -103 l-3 -90 -42 -3 c-40 -3 -43 -5 -43 -33 0 -28 2 -29 45 -29 l45 0 0 -150 c0 -206 16 -240 110 -240 76 0 141 54 106 88 -13 14 -20 14 -34 4 -40 -29 -63 -36 -80 -25 -15 9 -17 33 -20 167 l-3 156 66 0 65 0 0 30 0 30 -65 0 -65 0 0 93 c0 59 -4 97 -12 105 -16 16 -57 15 -63 0z"/>
<path d="M2113 2591 c-140 -64 -154 -371 -19 -435 68 -32 165 -15 200 36 9 12 17 20 18 17 2 -2 10 -17 18 -34 14 -27 21 -30 67 -33 41 -2 56 1 78 20 43 37 14 77 -34 46 -10 -6 -26 -8 -35 -5 -14 6 -16 30 -16 201 l0 196 -26 6 c-17 4 -31 1 -41 -8 -12 -13 -20 -13 -51 -2 -52 19 -110 17 -159 -5z m172 -63 c25 -11 25 -13 25 -125 0 -125 -9 -152 -61 -179 -33 -17 -92 -18 -121 -3 -30 16 -48 70 -48 144 0 117 43 175 131 175 26 0 60 -5 74 -12z"/>
<path d="M2592 2601 c-10 -6 -13 -52 -10 -213 3 -186 5 -208 22 -227 38 -42 161 -16 154 32 -2 16 -9 21 -25 20 -13 -2 -33 -4 -45 -5 l-23 -3 -3 189 c-1 119 -7 194 -13 203 -13 15 -38 17 -57 4z"/>
<path d="M3875 2596 c-76 -34 -116 -116 -116 -239 -1 -94 26 -159 81 -195 30 -20 45 -23 97 -20 55 3 67 8 97 37 33 32 34 32 41 12 11 -35 35 -51 75 -51 49 0 88 17 96 43 10 31 -10 42 -47 27 -54 -23 -59 -5 -57 200 0 98 -2 182 -6 189 -10 16 -42 14 -59 -4 -14 -13 -19 -13 -51 0 -44 18 -111 19 -151 1z m164 -67 l31 -11 0 -115 0 -115 -39 -39 c-35 -35 -44 -39 -89 -39 -44 0 -54 4 -76 30 -60 72 -41 245 32 284 32 18 97 20 141 5z"/>
<path d="M1882 2435 c-19 -77 -55 -225 -82 -330 l-48 -190 40 45 c50 55 104 166 118 241 6 31 9 128 8 215 l-3 159 -33 -140z"/>
<path d="M1331 2187 c-6 -15 -29 -90 -52 -165 -53 -175 -72 -203 -154 -223 -16 -4 59 -7 167 -8 108 -1 204 2 213 5 14 6 13 10 -10 29 -22 17 -41 59 -90 206 -58 171 -64 182 -74 156z"/>
</g>
</svg>

